<?xml version="1.0" encoding="utf-8"?>
<!-- Generator: Adobe Illustrator 24.1.2, SVG Export Plug-In . SVG Version: 6.00 Build 0)  -->
<svg version="1.1" xmlns="http://www.w3.org/2000/svg" xmlns:xlink="http://www.w3.org/1999/xlink" x="0px" y="0px"
	 viewBox="0 0 500 500" style="enable-background:new 0 0 500 500;" xml:space="preserve">
<style type="text/css">
	.st0{fill:#FFFFFF;}
	.st1{fill:#C89564;}
	.st2{fill:#002F34;}
	.st3{font-family:'SitkaBanner';}
	.st4{font-size:42px;}
</style>
<g id="BACKGROUND">
	<rect class="st0" width="500" height="500"/>
</g>
<g id="OBJECTS">
	<g>
		<circle class="st1" cx="343.68" cy="249" r="66"/>
		<g>
			<path class="st2" d="M378.25,282.92c0,0-2.28,12.1-27.28,9.95c-64.52-5.53-116.87,33-116.87,33s37.05,3.87,33.92,22.67
				c29.49-28.39,53.11-40.05,80.46-38.44C392.17,312.69,378.25,282.92,378.25,282.92z"/>
			<path class="st2" d="M313.18,250c0,0-3.13-36.4,23.23-45.8c21.73-7.75,38.16-0.37,44.43,18.43
				c-4.06-23.23-17.88-39.27-38.9-38.53C320.92,184.84,292.18,204.25,313.18,250z"/>
			<path class="st2" d="M384.71,243.1c0,0-7.29,2.33-25.99-0.18c-19.17-2.58-39.34-5.54-48.67,20.46
				c-3.5,9.77-4.24,14.19-4.24,14.19s5.05-9.03,26.96,1.6C354.76,289.83,384.89,297.11,384.71,243.1z"/>
			<path class="st2" d="M352.84,290.84c0,0-8.93-2.65-25.66-9.34c-22.04-8.81-24.21,7.65-29,13
				C323.68,285,352.84,290.84,352.84,290.84z"/>
		</g>
		<path class="st2" d="M341.36,221.67c5.96,2.02-1.45,3.56-8.21,2.36c-6.76-1.2-12.69,4.01-12.69,4.01S325.89,216.43,341.36,221.67z
			"/>
		<path class="st2" d="M354.86,220.02c-5.33,3.34,2.23,3.13,8.54,0.4c6.3-2.73,13.27,0.98,13.27,0.98S368.7,211.35,354.86,220.02z"
			/>
		<path class="st2" d="M343,231.75c0,0-0.7,4.74-18.76,0.44c-1.51,0.85-4.44,3.68-4.44,3.68l5.39-0.79
			C325.19,235.09,342.25,239.62,343,231.75z"/>
		<path class="st2" d="M357.16,230.38c0,0,1.55,4.53,18.53-2.95c1.64,0.56,5.03,2.82,5.03,2.82l-5.44,0.2
			C375.27,230.44,359.32,237.98,357.16,230.38z"/>
	</g>
</g>
<g id="TEXTS">
	<g>
		<g>
			<text transform="matrix(1 0 0 1 21.6814 258.2607)" class="st2 st3 st4">CoverMeChic</text>
		</g>
	</g>
</g>
</svg>
